<svg xmlns="http://www.w3.org/2000/svg" viewBox="0 0 200 200" width="200" height="200">
  <!-- Background Circle -->
  <circle cx="100" cy="100" r="90" fill="#646cff" opacity="0.1" />
  
  <!-- Main "A" Letter -->
  <path d="M60,160 L90,60 L110,60 L140,160 L120,160 L114,140 L86,140 L80,160 Z M90,120 L110,120 L100,90 Z" fill="#646cff" />
  
  <!-- "L" Letter -->
  <path d="M50,40 L50,70 L30,70 L30,40 Z M30,70 L30,160 L50,160 L50,70 Z" fill="#646cff" />
  
  <!-- Checkmark -->
  <path d="M150,40 L170,60 L190,40" stroke="#646cff" stroke-width="8" fill="none" stroke-linecap="round" stroke-linejoin="round" />
  
  <!-- Code Brackets -->
  <path d="M150,100 L170,120 L150,140" stroke="#646cff" stroke-width="6" fill="none" stroke-linecap="round" stroke-linejoin="round" />
  <path d="M190,100 L170,120 L190,140" stroke="#646cff" stroke-width="6" fill="none" stroke-linecap="round" stroke-linejoin="round" />
</svg>
